<svg width="371" height="128" viewBox="0 0 371 128" fill="none" xmlns="http://www.w3.org/2000/svg">
<path d="M5.67213 37.1761C6.55408 37.1761 7.32579 36.8467 7.87701 36.2976C8.53848 36.8467 9.31018 37.1761 10.1921 37.1761C12.0663 37.1761 13.8302 35.8584 13.8302 33.5524V24.2183C15.3736 26.4146 18.4605 27.9519 22.4293 27.9519C28.4927 27.9519 33.5639 23.5595 33.5639 17.1904C33.5639 15.7628 33.2332 14.3353 32.682 12.9077L30.4771 13.7862C31.0283 14.9941 31.2488 16.0922 31.2488 17.3002C31.2488 22.7908 26.839 25.6459 22.4293 25.6459C17.358 25.6459 14.7122 22.7908 13.8302 19.8259H11.4048V33.5524C11.4048 34.7603 10.4126 34.8701 10.1921 34.8701C9.64092 34.8701 8.97945 34.2112 8.97945 33.6622L8.75896 19.8259H6.99506L6.88481 33.772C6.88481 34.4308 6.22335 34.8701 5.67213 34.8701C5.56188 34.8701 4.56968 34.7603 4.56968 33.772L4.45944 19.8259H2.69553L2.47504 33.9916C2.47504 34.8701 1.48284 35.0897 1.26235 35.0897C0.821377 35.0897 0.159912 34.7603 0.159912 33.772V10.8213C0.159912 5.22086 1.26236 3.7933 8.86921 3.7933C19.4527 3.7933 29.0439 3.46387 38.6352 3.46387C53.4079 3.46387 62.2274 13.0175 62.2274 23.1202C62.2274 30.8071 59.802 34.6505 58.1484 36.6271C56.9357 34.2112 54.5103 32.564 51.8645 31.7954C47.2342 30.5874 45.9113 30.3678 43.3757 29.8187L42.8244 32.1248C45.3601 32.564 46.683 32.564 51.3132 34.1014C57.1562 36.078 57.5972 42.8864 58.4791 48.7064L59.0303 52.44C59.2508 53.6479 60.3533 62.3231 65.0938 62.3231H70.7162C71.9289 62.3231 72.5904 63.0918 72.5904 63.6408C72.5904 64.1899 72.0392 64.7389 71.1572 64.7389H67.4089V66.4959H70.7162C71.9289 66.4959 72.5904 67.1548 72.5904 67.7039C72.5904 68.2529 71.8187 68.802 70.9367 68.802H67.4089V70.559H71.047C72.0392 70.559 72.5904 70.9982 72.5904 71.5473C72.5904 72.316 71.5982 72.5356 71.2675 72.5356H67.4089V74.2926H71.3777C72.0392 74.2926 73.1416 74.7318 73.1416 75.3907C73.1416 75.7202 72.7006 76.379 71.9289 76.379H45.0293L38.8556 59.3582C40.3991 58.8091 42.0527 58.0404 43.7064 57.0521L42.4937 55.0755C39.1864 56.9423 35.5483 58.26 31.8 58.26C27.5005 58.26 24.1932 56.9423 22.2088 55.5147C18.0195 52.44 15.3736 47.2788 15.3736 43.106C15.3736 42.5569 15.3736 41.8981 15.4839 41.4588L13.279 41.0196C13.1687 41.6784 13.0585 42.5569 13.0585 43.2158C13.0585 48.1573 16.0351 53.9774 20.8858 57.3815C22.319 58.3699 23.8624 59.2484 25.5161 59.6876V76.379H0.600889V37.3958H1.26235C2.14431 37.3958 2.91602 37.0663 3.57748 36.5173C4.23895 36.9565 4.90042 37.1761 5.67213 37.1761Z" fill="#3E7776"/>
<path d="M197.895 95.3775C196.902 95.5972 195.249 94.4991 194.808 92.193C193.815 87.2515 193.375 85.4945 193.154 85.2748L191.28 86.5926C191.28 86.5926 192.052 87.9103 192.603 92.8519C192.823 94.2794 192.603 95.8168 191.721 95.9266C190.618 96.0364 188.854 94.8285 188.414 92.4126C188.303 91.6439 188.193 90.7654 187.973 89.8869C187.311 85.9337 186.98 83.2982 185.437 80.4431C184.004 80.6627 183.342 80.6627 182.681 80.6627C177.72 80.6627 172.428 77.9174 172.428 72.6465C172.428 70.6699 173.2 68.6932 175.294 67.9246C174.523 65.1793 174.192 63.2026 174.192 61.3358C174.192 60.677 174.192 60.0181 174.302 59.3592L171.987 59.1396C171.877 60.0181 171.877 60.7868 171.877 61.5555C171.877 63.0928 171.987 64.6302 172.538 66.497C170.885 68.3638 170.113 70.56 170.113 72.6465C170.113 74.9525 170.995 76.9291 172.208 78.5763C164.05 78.9057 154.238 77.8076 149.056 70.3404C146.521 66.6068 145.198 62.3241 145.198 57.9317C145.198 51.3429 148.064 44.6444 153.356 39.7029L153.907 39.1538L147.733 18.8386L145.528 19.4975L151.261 38.4949C145.749 43.8757 142.993 51.0135 142.993 57.9317C142.993 62.7634 144.316 67.5951 147.182 71.6581C148.836 74.074 150.93 75.831 153.246 77.2586C149.387 76.9291 144.536 75.5016 140.678 72.5367C135.607 68.5834 133.402 62.7634 133.402 56.9434C133.402 49.2565 136.929 43.2169 140.678 39.9225L141.449 39.2636L140.788 38.3851C137.15 33.224 135.166 28.0628 135.166 23.0115C135.166 8.07703 147.403 0.5 159.53 0.5C169.672 0.5 178.051 5.00229 182.681 12.4695C184.996 16.3129 186.319 20.5956 186.319 24.9881C186.319 26.9647 186.098 28.9413 185.547 30.9179L175.735 30.6983V33.0043L186.098 33.224C191.28 37.8361 196.131 43.7659 200.32 51.0135C205.942 60.8966 209.691 77.588 211.014 86.922L211.344 89.2281C211.675 90.9851 211.014 91.9734 210.132 92.193C209.36 92.3028 208.037 91.7538 207.486 89.6673C206.714 86.1533 206.273 83.9571 205.722 83.2982L203.958 84.9454C204.178 85.2748 204.73 86.5926 205.281 90.2164C205.612 92.4126 204.95 93.6206 204.289 93.8402C203.407 94.0598 201.974 93.0715 201.422 90.8753C200.21 86.1533 199.658 84.616 199.548 84.5062L197.674 85.7141C197.674 85.7141 198.446 87.1417 199.107 91.5341C199.548 93.8402 198.776 95.1579 197.895 95.3775ZM207.265 28.7217L211.344 21.8035C211.896 20.925 212.888 20.376 213.659 20.376C214.211 20.376 214.652 20.5956 214.872 21.0348C215.313 21.9133 215.093 23.1213 214.211 24.5488L210.132 31.6866L212.006 32.8945L216.305 25.6469C217.408 23.7801 218.951 23.1213 220.164 23.6703C221.156 24.1096 221.487 25.3175 220.936 26.8549L213.439 45.6327C214.762 45.8523 218.179 46.5112 220.825 49.2565C222.148 50.5743 222.81 52.3312 222.81 54.4177C222.81 61.7751 215.864 67.4853 209.47 68.9129C207.045 59.6887 205.942 55.955 202.304 49.8056C200.43 46.7308 198.556 43.7659 196.682 41.1304C196.792 31.0277 201.643 23.4507 204.399 19.6073L205.171 18.5092C206.163 17.0816 207.706 16.862 208.698 17.411C209.801 18.0699 210.021 19.4975 209.029 21.1446L205.281 27.5137L207.265 28.7217Z" fill="#3E7776"/>
<path d="M314.129 20.2675C310.711 18.8399 307.294 18.2909 304.097 18.2909C299.687 18.2909 295.828 19.4988 293.183 21.3656L289.544 14.3376C293.513 8.62742 297.592 4.12513 306.632 4.12513C315.011 4.12513 322.287 9.2863 325.374 19.2792L338.824 63.4236C339.375 65.1806 339.595 66.7179 339.595 68.1455C339.595 72.9772 336.068 76.3814 331.548 76.3814H311.814C314.79 73.1969 317.106 68.4749 318.649 62.3255C320.854 53.8699 322.067 47.0616 322.177 46.9518L319.862 46.5125C319.862 46.6224 318.539 53.4307 316.444 61.7764C313.357 73.6361 307.845 79.4561 299.687 79.4561C291.198 79.4561 286.678 75.2833 283.702 64.7413C280.504 53.6503 274.662 30.0408 274.662 29.8211L272.346 30.3702C272.457 30.5898 276.646 47.7205 279.953 59.7998L274.551 61.8862C273.449 57.8232 269.811 55.0779 265.732 55.0779C264.519 55.0779 263.306 55.2975 262.204 55.8466L263.086 57.933C263.968 57.4937 264.85 57.2741 265.732 57.2741C269.26 57.2741 272.346 60.239 272.346 63.5334V65.2904L280.504 61.996L281.166 64.1923L273.449 68.3651L274.331 69.9025L281.717 66.3885L282.489 68.6946L275.654 72.8674L276.536 74.4048L283.371 70.781C283.702 71.6595 284.032 72.3184 284.473 73.087C281.497 75.5029 276.425 78.6875 270.913 78.6875C265.291 78.6875 260.22 76.601 257.133 72.8674C254.707 70.0123 253.495 66.2787 253.495 61.996C253.495 60.6783 253.605 59.2507 253.825 57.8232C255.81 46.1831 259.999 24.1109 263.086 11.3727C264.299 6.21156 267.606 1.27002 273.008 1.27002C277.197 1.27002 281.607 4.23494 283.922 8.62743L303.986 47.0616L305.971 45.9635C301.892 38.1668 298.144 30.8094 294.285 23.5618C296.49 21.8049 300.018 20.7067 303.986 20.7067C306.853 20.7067 309.94 21.2558 313.027 22.4637L314.129 20.2675Z" fill="#3E7776"/>
<path d="M0.416504 120.769H4.52079V99.032L17.6845 99.4807V95.9908L3.87011 95.5421C1.51765 95.4424 0.416504 96.5891 0.416504 98.9323V120.769Z" fill="#3E7776"/>
<path d="M19.7492 108.056C19.7492 115.185 23.5031 121.268 32.4124 121.268C40.3207 121.268 43.3238 115.933 44.2748 112.094H40.1705C39.2696 115.883 36.5167 117.878 32.4124 117.878C26.256 117.878 24.0037 113.839 23.7534 109.153H43.4239V107.557C43.4239 99.9294 38.8191 95.4923 31.8118 95.4923C24.7544 95.4923 19.7492 100.079 19.7492 108.056ZM23.7534 106.062C23.7534 102.073 26.9067 98.9323 31.8118 98.9323C36.767 98.9323 39.4198 102.073 39.4198 106.062H23.7534Z" fill="#3E7776"/>
<path d="M62.9948 98.9822C67.2492 98.9822 69.3014 100.976 69.3014 106.161V120.769H73.3556V105.613C73.3556 98.7329 69.7018 95.4923 64.0959 95.4923C58.6903 95.4923 55.537 98.6332 54.5359 103.12H53.3847L54.0354 100.278V95.9908H49.9311V120.769H54.0354V109.801C54.0354 103.12 57.7393 98.9822 62.9948 98.9822Z" fill="#3E7776"/>
<path d="M86.8048 117.828V99.4807H94.5629V95.9908H86.8048V88.3628L82.7506 89.6092V95.9908H77.2448V99.4807H82.7506V117.878C82.7506 120.171 83.8017 121.417 86.1541 121.268L95.564 120.769V117.279L86.8048 117.828Z" fill="#3E7776"/>
<path d="M100.302 113.889C100.302 116.482 101.403 121.268 108.611 121.268C114.617 121.268 117.27 117.728 118.221 113.939H119.422L118.771 116.532V117.878C118.771 119.722 119.823 120.769 121.725 120.769H126.129V117.279H122.475V106.71C122.475 100.079 118.321 95.4923 111.364 95.4923C104.306 95.4923 100.402 100.079 100.402 105.214H104.406C104.406 100.528 107.76 98.9323 111.364 98.9323C115.668 98.9323 118.121 101.176 118.371 105.713L108.461 106.66C102.655 107.258 100.302 109.951 100.302 113.889ZM104.406 113.391C104.406 110.948 106.008 110 109.161 109.701L118.371 108.754C118.371 113.889 114.767 117.778 109.111 117.778C106.208 117.778 104.406 116.232 104.406 113.391Z" fill="#3E7776"/>
<path d="M129.422 120.769H147.441V117.279H140.484V87.0666C140.484 84.7234 139.383 83.4271 137.08 83.6265L131.274 84.1251V87.615L136.43 87.1663V117.279H129.422V120.769Z" fill="#3E7776"/>
<path d="M189.062 114.338C189.062 109.003 183.757 107.906 178.852 106.311C174.848 105.015 173.146 104.267 173.146 101.874C173.146 99.6303 175.348 98.8326 178.101 98.8326C182.055 98.8326 184.107 100.478 184.107 103.818H188.212C188.212 99.73 185.859 95.4923 178.101 95.4923C172.395 95.4923 169.042 98.0848 169.042 102.023C169.042 106.51 172.846 107.956 177.55 109.452C181.605 110.698 184.958 111.247 184.958 114.487C184.958 117.03 183.156 117.927 179.302 117.927C174.497 117.927 171.995 115.933 171.995 111.646H167.89C167.89 117.529 171.194 121.268 179.252 121.268C186.71 121.268 189.062 118.077 189.062 114.338Z" fill="#3E7776"/>
<path d="M223.452 120.769H227.557V99.032L240.72 99.4807V95.9908L226.906 95.5421C224.553 95.4424 223.452 96.5891 223.452 98.9323V120.769Z" fill="#3E7776"/>
<path d="M263.715 95.9908L256.007 119.623H254.805L247.047 95.9908H243.043L251.252 120.769H259.56L267.669 95.9908H263.715Z" fill="#3E7776"/>
<path d="M278.955 92.0522C280.957 92.0522 282.559 90.5565 282.559 88.5623C282.559 86.6677 280.957 85.1222 278.955 85.1222C276.903 85.1222 275.351 86.6677 275.351 88.5623C275.351 90.5565 276.903 92.0522 278.955 92.0522ZM270.646 120.769H288.515V117.279H281.507V98.4836C281.507 96.5891 280.607 95.2928 278.254 95.4923L272.498 95.9908V99.4807L277.653 99.032V117.279H270.646V120.769Z" fill="#3E7776"/>
<path d="M291.322 108.355C291.322 115.534 295.977 121.268 304.035 121.268C308.84 121.268 314.997 118.576 315.647 111.396H311.493C310.792 116.133 307.639 117.778 304.035 117.778C298.129 117.778 295.426 113.49 295.426 108.355C295.426 103.27 298.129 98.9822 304.035 98.9822C307.639 98.9822 310.792 100.627 311.493 105.364H315.647C314.997 98.1845 308.84 95.4923 304.035 95.4923C295.977 95.4923 291.322 101.226 291.322 108.355Z" fill="#3E7776"/>
<path d="M320.307 108.056C320.307 115.185 324.061 121.268 332.971 121.268C340.879 121.268 343.882 115.933 344.833 112.094H340.729C339.828 115.883 337.075 117.878 332.971 117.878C326.814 117.878 324.562 113.839 324.312 109.153H343.982V107.557C343.982 99.9294 339.377 95.4923 332.37 95.4923C325.313 95.4923 320.307 100.079 320.307 108.056ZM324.312 106.062C324.312 102.073 327.465 98.9323 332.37 98.9323C337.325 98.9323 339.978 102.073 339.978 106.062H324.312Z" fill="#3E7776"/>
<path d="M370.16 114.338C370.16 109.003 364.854 107.906 359.949 106.311C355.945 105.015 354.243 104.267 354.243 101.874C354.243 99.6303 356.446 98.8326 359.198 98.8326C363.153 98.8326 365.205 100.478 365.205 103.818H369.309C369.309 99.73 366.957 95.4923 359.198 95.4923C353.492 95.4923 350.139 98.0848 350.139 102.023C350.139 106.51 353.943 107.956 358.648 109.452C362.702 110.698 366.056 111.247 366.056 114.487C366.056 117.03 364.254 117.927 360.4 117.927C355.595 117.927 353.092 115.933 353.092 111.646H348.988C348.988 117.529 352.291 121.268 360.35 121.268C367.807 121.268 370.16 118.077 370.16 114.338Z" fill="#3E7776"/>
<path d="M193.435 116.643C194.811 123.64 199.669 128.89 208.412 127.183C216.173 125.669 218.091 119.859 218.283 115.909L214.255 116.695C214.102 120.586 211.786 123.07 207.758 123.857C201.717 125.036 198.727 121.504 197.577 116.953L216.88 113.186L216.572 111.62C215.1 104.134 209.724 100.662 202.848 102.004C195.922 103.355 191.896 108.815 193.435 116.643ZM196.98 113.919C196.21 110.005 198.698 106.319 203.512 105.38C208.375 104.431 211.584 107.005 212.354 110.919L196.98 113.919Z" fill="#3E7776"/>
<rect x="77.4409" y="71.1792" width="25.0262" height="5.16615" fill="#3E7776"/>
<rect x="343.909" y="71.1792" width="25.0262" height="5.16615" fill="#3E7776"/>
</svg>
