<svg width="32" height="22" viewBox="0 0 32 22" fill="none" xmlns="http://www.w3.org/2000/svg">
<path fill-rule="evenodd" clip-rule="evenodd" d="M2.6924 4.61586C3.04653 4.0846 3.76807 3.29492 4.74878 2.71264C5.72283 2.1343 6.92582 1.77487 8.27383 2.03924L8.46628 1.05794C6.81869 0.734805 5.36637 1.18296 4.23824 1.85278C3.11676 2.51865 2.28926 3.41771 1.86031 4.06122L2.6924 4.61586ZM30.9586 5.08908C30.5296 4.44557 29.7021 3.54651 28.5806 2.88064C27.4525 2.21082 26.0002 1.76267 24.3526 2.0858L24.5451 3.0671C25.8931 2.80273 27.0961 3.16216 28.0701 3.7405C29.0508 4.32279 29.7724 5.11246 30.1265 5.64372L30.9586 5.08908ZM13.3808 11.1162C13.3808 14.2783 10.8174 16.8417 7.65525 16.8417C4.49314 16.8417 1.92975 14.2783 1.92975 11.1162C1.92975 7.9541 4.49314 5.39071 7.65525 5.39071C10.8174 5.39071 13.3808 7.9541 13.3808 11.1162ZM14.3808 11.1162C14.3808 14.8306 11.3696 17.8417 7.65525 17.8417C3.94086 17.8417 0.929745 14.8306 0.929745 11.1162C0.929745 7.40182 3.94086 4.39071 7.65525 4.39071C11.3696 4.39071 14.3808 7.40182 14.3808 11.1162ZM7.80116 12.6748C8.40075 12.6748 8.88681 12.1887 8.88681 11.5891C8.88681 10.9895 8.40075 10.5035 7.80116 10.5035C7.20158 10.5035 6.71552 10.9895 6.71552 11.5891C6.71552 12.1887 7.20158 12.6748 7.80116 12.6748ZM0.706055 17.9991C1.37327 18.6253 2.81376 19.7935 4.5213 20.5218C6.22296 21.2476 8.30699 21.5809 10.1277 20.3224L9.55911 19.4998C8.15195 20.4724 6.48119 20.2706 4.91363 19.602C3.35194 18.9359 2.00876 17.8503 1.39037 17.2699L0.706055 17.9991ZM30.6092 17.2699C29.9941 17.8473 28.6256 18.9338 27.0369 19.6009C25.4406 20.2712 23.7441 20.4722 22.3372 19.4998L21.7686 20.3224C23.5896 21.5811 25.6995 21.2471 27.4241 20.5229C29.1563 19.7955 30.6231 18.6283 31.2936 17.9991L30.6092 17.2699ZM22.9963 11.5891C22.9963 12.1887 22.5102 12.6748 21.9106 12.6748C21.3111 12.6748 20.825 12.1887 20.825 11.5891C20.825 10.9895 21.3111 10.5035 21.9106 10.5035C22.5102 10.5035 22.9963 10.9895 22.9963 11.5891ZM24.2104 16.8417C27.3725 16.8417 29.9359 14.2783 29.9359 11.1162C29.9359 7.9541 27.3725 5.39071 24.2104 5.39071C21.0483 5.39071 18.4849 7.9541 18.4849 11.1162C18.4849 14.2783 21.0483 16.8417 24.2104 16.8417ZM24.2104 17.8417C27.9248 17.8417 30.9359 14.8306 30.9359 11.1162C30.9359 7.40182 27.9248 4.39071 24.2104 4.39071C20.496 4.39071 17.4849 7.40182 17.4849 11.1162C17.4849 14.8306 20.496 17.8417 24.2104 17.8417Z" fill="#3E7776"/>
</svg>
