<svg width="30" height="21" viewBox="0 0 30 21" fill="none" xmlns="http://www.w3.org/2000/svg">
<path fill-rule="evenodd" clip-rule="evenodd" d="M3.66162 0.105957H27.0047V0.723315C22.5561 1.35882 15.4602 1.20426 6.18827 1.00229C5.36318 0.984316 4.52085 0.965968 3.66162 0.947767V0.105957ZM1.98389 10.0219C1.98389 9.28482 2.14315 8.58566 2.42911 7.95632L11.5368 7.95632C11.8227 8.58546 11.9821 9.28453 11.9821 10.0219C11.9821 12.7829 9.74391 15.021 6.98298 15.021C4.22206 15.021 1.98389 12.7829 1.98389 10.0219ZM0.983887 10.0219C0.983887 8.91563 1.28378 7.87816 1.80676 6.98772V6.95632H1.82534C1.88352 6.85862 1.9444 6.76272 2.00788 6.66871L2.43383 6.95632L12.2438 6.95632V7.22017L12.2789 7.20145C12.7278 8.04274 12.9821 9.00339 12.9821 10.0219C12.9821 13.3351 10.2962 16.021 6.98298 16.021C3.66977 16.021 0.983887 13.3351 0.983887 10.0219ZM27.4029 17.9512C26.8484 18.4715 25.8214 19.1469 24.5864 19.4413C23.3674 19.7318 21.9564 19.6509 20.5663 18.6901L19.9977 19.5127C21.6601 20.6617 23.3728 20.7585 24.8182 20.414C26.2477 20.0734 27.4258 19.3011 28.0872 18.6804L27.4029 17.9512ZM1.75892 18.6805C2.42027 19.3012 3.59846 20.0735 5.02789 20.4142C6.47336 20.7587 8.18601 20.6618 9.84841 19.5128L9.27983 18.6902C7.88968 19.651 6.47869 19.7319 5.25973 19.4414C4.02472 19.1471 2.99767 18.4717 2.44323 17.9513L1.75892 18.6805ZM6.81604 10.8903C7.38306 10.8903 7.84272 10.4307 7.84272 9.86363C7.84272 9.29661 7.38306 8.83695 6.81604 8.83695C6.24901 8.83695 5.78935 9.29661 5.78935 9.86363C5.78935 10.4307 6.24901 10.8903 6.81604 10.8903ZM19.1298 7.95632C18.8438 8.58566 18.6846 9.28482 18.6846 10.0219C18.6846 12.7829 20.9227 15.021 23.6837 15.021C26.4446 15.021 28.6827 12.7829 28.6827 10.0219C28.6827 9.28453 28.5234 8.58546 28.2375 7.95632L19.1298 7.95632ZM18.5074 6.98772C17.9845 7.87816 17.6846 8.91563 17.6846 10.0219C17.6846 13.3351 20.3704 16.021 23.6837 16.021C26.9969 16.021 29.6827 13.3351 29.6827 10.0219C29.6827 9.00339 29.4285 8.04274 28.9796 7.20145L28.9445 7.22018V6.95632L19.1345 6.95632L18.7085 6.66871C18.6451 6.76272 18.5842 6.85862 18.526 6.95632H18.5074V6.98772ZM24.5434 9.86363C24.5434 10.4307 24.0837 10.8903 23.5167 10.8903C22.9497 10.8903 22.49 10.4307 22.49 9.86363C22.49 9.29661 22.9497 8.83695 23.5167 8.83695C24.0837 8.83695 24.5434 9.29661 24.5434 9.86363Z" fill="#F0FF92"/>
</svg>
